# xmcd
#
# Track frame offsets:
#	150
#	18219
#	36199
#	58364
#	80582
#	98608
#	116828
#	135546
#	151105
#	168256
#	186117
#	204138
#
# Disc length: 2994 seconds
#
# Revision: 1
# Processed by: cddbd v1.5.2PL0 Copyright (c) Steve Scherf et al.
# Submitted via: audiograbber 1.83.01
#
DISCID=920bb00c
DTITLE=Rivers, Teak and The Handsome Shadows - Hope and heartache
DYEAR=2009
DGENRE=Country
TTITLE0=Only one for me
TTITLE1=Heartache
TTITLE2=How can cou blame me
TTITLE3=One horse town
TTITLE4=Favourite waste of time
TTITLE5=That's what I want
TTITLE6=Under your spell
TTITLE7=Draw a line in the sand
TTITLE8=It's not happening for me
TTITLE9=1985
TTITLE10=It's only time
TTITLE11=Some kind of magic
EXTD=
EXTT0=
EXTT1=
EXTT2=
EXTT3=
EXTT4=
EXTT5=
EXTT6=
EXTT7=
EXTT8=
EXTT9=
EXTT10=
EXTT11=
PLAYORDER=
